<?xml version="1.0" standalone="no"?>
<!DOCTYPE svg PUBLIC "-//W3C//DTD SVG 20010904//EN"
 "http://www.w3.org/TR/2001/REC-SVG-20010904/DTD/svg10.dtd">
<svg version="1.0" xmlns="http://www.w3.org/2000/svg"
 width="539.000000pt" height="409.000000pt" viewBox="0 0 539.000000 409.000000"
 preserveAspectRatio="xMidYMid meet">

<g transform="translate(0.000000,409.000000) scale(0.100000,-0.100000)"
fill="#000000" stroke="none">
<path d="M3590 3559 c-19 -5 -113 -22 -209 -39 -391 -68 -825 -204 -1058 -332
-56 -31 -87 -41 -119 -41 -43 0 -44 -1 -44 -34 0 -19 6 -46 14 -61 22 -40 111
-112 139 -112 26 0 85 19 140 44 65 31 281 115 285 111 2 -2 -21 -117 -52
-257 -70 -318 -100 -472 -121 -618 -9 -63 -23 -149 -31 -191 -8 -42 -12 -83
-8 -92 6 -17 73 -75 133 -115 47 -32 81 -44 106 -38 20 5 22 12 20 88 -1 53 8
142 27 248 15 91 30 179 32 195 3 17 14 73 25 125 56 256 84 390 117 550 23
116 41 181 53 193 29 30 375 110 635 146 81 12 132 23 137 32 15 23 1 58 -44
111 -67 78 -116 102 -177 87z"/>
<path d="M3273 3173 c-15 -6 -17 -39 -3 -48 40 -25 -38 -213 -151 -362 l-32
-42 25 -30 26 -30 -55 -188 c-132 -457 -193 -769 -193 -995 l0 -101 58 -53
c49 -46 63 -54 97 -54 22 0 45 4 52 8 19 12 33 59 33 110 0 26 7 101 15 167
26 209 31 225 71 225 14 0 37 6 52 14 52 27 507 513 614 656 106 142 168 272
168 354 0 72 -17 113 -81 191 -123 152 -269 199 -438 140 l-80 -28 -31 27
c-17 14 -41 28 -53 30 -51 10 -83 13 -94 9z m557 -223 c0 -78 -68 -192 -235
-395 -102 -123 -284 -319 -300 -323 -10 -2 -10 7 0 40 14 46 80 252 115 358
64 197 130 266 310 326 52 18 98 30 102 28 5 -3 8 -18 8 -34z"/>
<path d="M2227 2890 c-14 -11 -32 -20 -40 -20 -8 0 -17 -8 -19 -18 -3 -11 -38
-41 -79 -68 -164 -109 -467 -447 -551 -614 -29 -57 -33 -75 -33 -145 0 -95 20
-143 93 -218 96 -100 206 -159 317 -171 33 -4 112 -15 175 -25 63 -10 117 -17
119 -15 7 6 62 -87 67 -115 7 -36 -28 -78 -119 -142 -157 -110 -293 -124 -459
-47 -53 24 -77 42 -99 75 -17 24 -34 43 -39 43 -4 0 -13 14 -19 31 -7 21 -16
30 -28 27 -15 -3 -19 -15 -21 -71 -2 -55 2 -78 22 -122 47 -104 204 -239 315
-272 81 -24 219 -22 298 6 134 46 311 181 387 295 28 42 36 64 36 100 0 55
-16 100 -32 90 -7 -5 -8 -3 -4 5 5 7 1 20 -8 29 -9 9 -37 43 -62 74 -101 126
-198 164 -513 204 -69 8 -154 25 -190 37 -66 22 -66 22 -63 57 4 57 87 210
169 308 22 27 22 27 23 4 0 -44 49 -120 117 -181 65 -58 95 -73 108 -51 3 5
13 35 21 65 19 75 113 252 210 399 78 117 87 130 106 150 26 28 36 74 26 120
-15 66 -145 196 -196 196 -5 0 -21 -9 -35 -20z"/>
</g>
</svg>
